<svg width="8" height="6" viewBox="0 0 8 6" fill="none" xmlns="http://www.w3.org/2000/svg">
<path d="M2.93225 5.54947L0.757772 3.38801C0.697008 3.32725 0.666626 3.24913 0.666626 3.15364C0.666626 3.05815 0.697008 2.98003 0.757772 2.91927L1.23954 2.45052C1.30031 2.38107 1.37626 2.34635 1.46741 2.34635C1.55855 2.34635 1.63885 2.38107 1.70829 2.45052L3.16662 3.90885L6.29161 0.783854C6.36106 0.71441 6.44135 0.679688 6.5325 0.679688C6.62364 0.679688 6.6996 0.71441 6.76036 0.783854L7.24213 1.2526C7.3029 1.31337 7.33328 1.39149 7.33328 1.48698C7.33328 1.58246 7.3029 1.66059 7.24213 1.72135L3.40099 5.54947C3.34023 5.61891 3.26211 5.65363 3.16662 5.65363C3.07113 5.65363 2.99301 5.61891 2.93225 5.54947Z" fill="#36B37E"/>
</svg>
