<svg width="23" height="22" viewBox="0 0 23 22" fill="none" xmlns="http://www.w3.org/2000/svg">
<path d="M14.0901 10.9999L22.5366 2.43331C23.0863 1.87609 23.0863 0.97514 22.5366 0.417917C21.9872 -0.139306 21.0988 -0.139306 20.5494 0.417917L12.1026 8.98454L3.65599 0.417917C3.10629 -0.139306 2.21819 -0.139306 1.66876 0.417917C1.11907 0.97514 1.11907 1.87609 1.66876 2.43331L10.1154 10.9999L1.66876 19.5665C1.11907 20.1238 1.11907 21.0247 1.66876 21.582C1.94258 21.8599 2.3026 21.9996 2.66237 21.9996C3.02215 21.9996 3.38191 21.8599 3.65599 21.582L12.1026 13.0153L20.5494 21.582C20.8235 21.8599 21.1833 21.9996 21.543 21.9996C21.9028 21.9996 22.2626 21.8599 22.5366 21.582C23.0863 21.0247 23.0863 20.1238 22.5366 19.5665L14.0901 10.9999Z" fill="white"/>
</svg>
