<svg width="285" height="173" viewBox="0 0 285 173" fill="none" xmlns="http://www.w3.org/2000/svg">
<path d="M255.9 172.08C248.175 172.08 240.913 169.066 235.45 163.609L142.402 70.555L49.361 163.603C43.905 169.066 36.642 172.074 28.911 172.074C21.18 172.074 13.917 169.066 8.45399 163.603C-2.81901 152.33 -2.81901 133.982 8.45399 122.709L121.952 9.20501C127.408 3.74201 134.671 0.734009 142.396 0.734009C150.115 0.734009 157.383 3.74201 162.846 9.20501L276.344 122.709C281.813 128.172 284.815 135.428 284.815 143.159C284.815 150.878 281.807 158.146 276.344 163.609C270.888 169.066 263.626 172.08 255.9 172.08ZM142.403 52.381L244.538 154.523C250.611 160.596 261.183 160.596 267.257 154.523C270.297 151.483 271.961 147.447 271.961 143.16C271.961 138.873 270.29 134.837 267.257 131.797L153.47 18.016C147.397 12.219 137.017 12.315 131.047 18.292L17.542 131.797C11.276 138.063 11.276 148.256 17.542 154.516C23.615 160.589 34.2 160.589 40.267 154.516L142.403 52.381Z" fill="white"/>
</svg>
