<svg width="40" height="36" viewBox="0 0 40 36" fill="none" xmlns="http://www.w3.org/2000/svg">
<path d="M36.2498 18H29.9998V13C29.9998 10.2656 32.1873 8 34.9998 8H35.6248C36.6404 8 37.4998 7.21875 37.4998 6.125V2.375C37.4998 1.35938 36.6404 0.5 35.6248 0.5H34.9998C28.0467 0.5 22.4998 6.125 22.4998 13V31.75C22.4998 33.8594 24.1404 35.5 26.2498 35.5H36.2498C38.2811 35.5 39.9998 33.8594 39.9998 31.75V21.75C39.9998 19.7188 38.2811 18 36.2498 18ZM13.7498 18H7.4998V13C7.4998 10.2656 9.6873 8 12.4998 8H13.1248C14.1404 8 14.9998 7.21875 14.9998 6.125V2.375C14.9998 1.35938 14.1404 0.5 13.1248 0.5H12.4998C5.54668 0.5 -0.000198364 6.125 -0.000198364 13V31.75C-0.000198364 33.8594 1.64043 35.5 3.7498 35.5H13.7498C15.7811 35.5 17.4998 33.8594 17.4998 31.75V21.75C17.4998 19.7188 15.7811 18 13.7498 18Z" fill="white"/>
</svg>
